# Blender v3.6.5 OBJ File: ''
# www.blender.org
mtllib Hexagon.mtl
o node_id39_mesh_id40
v 0.056519 0.094875 0.231705
v -0.054565 0.094875 0.231705
v -0.054565 0.094875 0.320126
v 0.056519 0.094875 0.320126
v -0.054565 0.094875 0.231705
v -0.110106 -0.001326 0.231705
v -0.110106 -0.001326 0.320126
v -0.054565 0.094875 0.320126
v 0.112061 -0.001326 0.231705
v 0.056519 0.094875 0.231705
v 0.056519 0.094875 0.320126
v 0.112061 -0.001326 0.320126
v 0.056519 -0.097528 0.231705
v 0.056519 -0.097528 0.320126
v -0.054565 -0.097528 0.320126
v -0.054565 -0.097528 0.231705
v -0.054565 -0.097528 0.231705
v -0.054565 -0.097528 0.320126
v -0.110106 -0.001326 0.320126
v -0.110106 -0.001326 0.231705
v 0.112061 -0.001326 0.231705
v 0.112061 -0.001326 0.320126
v 0.056519 -0.097528 0.320126
v 0.056519 -0.097528 0.231705
v 0.112061 -0.001326 0.231705
v 0.056519 -0.097528 0.231705
v -0.054565 -0.097528 0.231705
v -0.054565 0.094875 0.231705
v -0.054565 -0.097528 0.231705
v -0.110106 -0.001326 0.231705
v -0.054565 0.094875 0.231705
v 0.056519 0.094875 0.231705
v 0.112061 -0.001326 0.231705
v -0.054565 0.094875 0.231705
v -0.110106 -0.001326 0.320126
v -0.054565 -0.097528 0.320126
v 0.056519 -0.097528 0.320126
v 0.056519 0.094875 0.320126
v 0.056519 -0.097528 0.320126
v 0.112061 -0.001326 0.320126
v 0.056519 0.094875 0.320126
v -0.054565 0.094875 0.320126
v -0.110106 -0.001326 0.320126
v 0.056519 0.094875 0.320126
vt 0.065381 0.627516
vt 0.065381 0.757080
vt 0.052424 0.757080
vt 0.052424 0.627516
vt 0.029833 0.752586
vt 0.029833 0.632013
vt 0.043755 0.632013
vt 0.043755 0.752586
vt 0.018817 0.632013
vt 0.018817 0.752586
vt 0.004894 0.752586
vt 0.004894 0.632013
vt 0.093810 0.757080
vt 0.080853 0.757080
vt 0.080853 0.627515
vt 0.093810 0.627515
vt 0.029833 0.511439
vt 0.043755 0.511439
vt 0.043755 0.632013
vt 0.029833 0.632013
vt 0.018817 0.632013
vt 0.004894 0.632013
vt 0.004894 0.511439
vt 0.018817 0.511439
vt 0.004414 0.881430
vt 0.069197 0.769224
vt 0.198761 0.769224
vt 0.198761 0.993637
vt 0.198761 0.769224
vt 0.263543 0.881430
vt 0.198761 0.993637
vt 0.069197 0.993637
vt 0.004414 0.881430
vt 0.198761 0.993637
vt 0.272915 0.879439
vt 0.337697 0.767233
vt 0.467262 0.767233
vt 0.467262 0.991645
vt 0.467262 0.767233
vt 0.532044 0.879439
vt 0.467262 0.991645
vt 0.337697 0.991645
vt 0.272915 0.879439
vt 0.467262 0.991645
vn -0.0000 1.0000 0.0000
vn -0.8660 0.5000 0.0000
vn 0.8660 0.5000 0.0000
vn -0.0000 -1.0000 -0.0000
vn -0.8660 -0.5000 -0.0000
vn 0.8660 -0.5000 -0.0000
vn 0.0000 0.0000 -1.0000
vn -0.0000 -0.0000 1.0000
usemtl 100
s off
f 1/1/1 2/2/1 3/3/1
f 3/3/1 4/4/1 1/1/1
f 5/5/2 6/6/2 7/7/2
f 7/7/2 8/8/2 5/5/2
f 9/9/3 10/10/3 11/11/3
f 11/11/3 12/12/3 9/9/3
f 13/13/4 14/14/4 15/15/4
f 15/15/4 16/16/4 13/13/4
f 17/17/5 18/18/5 19/19/5
f 19/19/5 20/20/5 17/17/5
f 21/21/6 22/22/6 23/23/6
f 23/23/6 24/24/6 21/21/6
f 25/25/7 26/26/7 27/27/7
f 27/27/7 28/28/7 25/25/7
f 29/29/7 30/30/7 31/31/7
f 32/32/7 33/33/7 34/34/7
f 35/35/8 36/36/8 37/37/8
f 37/37/8 38/38/8 35/35/8
f 39/39/8 40/40/8 41/41/8
f 42/42/8 43/43/8 44/44/8
