# Blender v3.6.5 OBJ File: ''
# www.blender.org
mtllib Nonagon.mtl
o mesh_id32
v -0.038563 -0.001274 0.053578
v -0.103180 0.112409 0.053578
v -0.091781 0.043687 0.053578
v -0.002461 0.196979 0.053578
v -0.069280 0.171961 0.053578
v 0.098257 0.112108 0.053578
v 0.062466 0.171638 0.053578
v 0.033330 -0.001909 0.053578
v 0.086539 0.044009 0.053578
v -0.091781 0.043687 -0.046423
v -0.103180 0.112409 -0.046423
v -0.038563 -0.001274 -0.046423
v -0.069280 0.171961 -0.046423
v -0.002461 0.196979 -0.046423
v 0.062466 0.171638 -0.046423
v 0.098257 0.112108 -0.046423
v 0.086539 0.044009 -0.046423
v 0.033330 -0.001909 -0.046423
v -0.091781 0.043687 0.053578
v -0.103180 0.112409 -0.046423
v -0.091781 0.043687 -0.046423
v -0.103180 0.112409 0.053578
v -0.069280 0.171961 -0.046423
v -0.069280 0.171961 0.053578
v -0.002461 0.196979 -0.046423
v -0.002461 0.196979 0.053578
v 0.062466 0.171638 -0.046423
v 0.062466 0.171638 0.053578
v 0.098257 0.112108 -0.046423
v 0.098257 0.112108 0.053578
v 0.086539 0.044009 -0.046423
v 0.086539 0.044009 0.053578
v 0.033330 -0.001909 -0.046423
v 0.033330 -0.001909 0.053578
v -0.038563 -0.001274 -0.046423
v -0.038563 -0.001274 0.053578
vn -0.0000 0.0000 1.0000
vn 0.0000 0.0000 -1.0000
vn -0.8700 -0.4930 0.0000
vn -0.9845 0.1752 0.0000
vn -0.6498 0.7601 0.0000
vn 0.0069 1.0000 0.0000
vn 0.6458 0.7635 0.0000
vn 0.9829 0.1841 -0.0000
vn 0.8711 -0.4911 0.0000
vn 0.3454 -0.9385 0.0000
vn -0.3486 -0.9373 0.0000
usemtl 77
s off
f 1//1 2//1 3//1
f 2//1 4//1 5//1
f 4//1 6//1 7//1
f 6//1 8//1 9//1
f 8//1 2//1 1//1
f 2//1 6//1 4//1
f 2//1 8//1 6//1
f 10//2 11//2 12//2
f 13//2 14//2 11//2
f 15//2 16//2 14//2
f 17//2 18//2 16//2
f 12//2 11//2 18//2
f 14//2 16//2 11//2
f 16//2 18//2 11//2
s 1
f 19//3 20//4 21//3
f 19//3 22//4 20//4
f 22//4 23//5 20//4
f 22//4 24//5 23//5
f 24//5 25//6 23//5
f 24//5 26//6 25//6
f 26//6 27//7 25//6
f 26//6 28//7 27//7
f 28//7 29//8 27//7
f 28//7 30//8 29//8
f 30//8 31//9 29//8
f 30//8 32//9 31//9
f 32//9 33//10 31//9
f 32//9 34//10 33//10
f 34//10 35//11 33//10
f 34//10 36//11 35//11
f 36//11 21//3 35//11
f 36//11 19//3 21//3
