# Blender v3.6.5 OBJ File: ''
# www.blender.org
mtllib Trapezoid.mtl
o mesh_id42
v -0.186891 -0.113309 0.040866
v 0.084889 0.068515 0.040866
v -0.096936 0.065977 0.040866
v 0.176736 -0.115201 0.040866
v -0.096936 0.065977 -0.059134
v 0.084889 0.068515 -0.059134
v -0.186891 -0.113309 -0.059134
v 0.176736 -0.115201 -0.059134
v -0.096936 0.065977 0.040866
v 0.084889 0.068515 -0.059134
v -0.096936 0.065977 -0.059134
v 0.084889 0.068515 0.040866
v 0.084889 0.068515 0.040866
v 0.176736 -0.115201 -0.059134
v 0.084889 0.068515 -0.059134
v 0.176736 -0.115201 0.040866
v 0.176736 -0.115201 0.040866
v -0.186891 -0.113309 -0.059134
v 0.176736 -0.115201 -0.059134
v -0.186891 -0.113309 0.040866
v -0.186891 -0.113309 0.040866
v -0.096936 0.065977 -0.059134
v -0.186891 -0.113309 -0.059134
v -0.096936 0.065977 0.040866
vn -0.0000 0.0000 1.0000
vn 0.0000 0.0000 -1.0000
vn -0.0140 0.9999 0.0000
vn 0.8945 0.4472 0.0000
vn -0.0052 -1.0000 0.0000
vn -0.8938 0.4485 0.0000
usemtl 77
s off
f 1//1 2//1 3//1
f 1//1 4//1 2//1
f 5//2 6//2 7//2
f 6//2 8//2 7//2
f 9//3 10//3 11//3
f 9//3 12//3 10//3
f 13//4 14//4 15//4
f 13//4 16//4 14//4
f 17//5 18//5 19//5
f 17//5 20//5 18//5
f 21//6 22//6 23//6
f 21//6 24//6 22//6
o mesh_id46
v 0.139288 0.016288 -0.037134
v -0.149023 -0.034953 -0.037134
v -0.149023 0.016288 -0.037134
v 0.139288 -0.034953 -0.037134
v -0.149023 0.016288 0.056488
v 0.139288 -0.034953 0.056488
v 0.139288 0.016288 0.056488
v -0.149023 -0.034953 0.056488
v 0.139288 0.016288 0.056488
v 0.139288 -0.034953 -0.037134
v 0.139288 0.016288 -0.037134
v 0.139288 -0.034953 0.056488
v -0.149023 0.016288 -0.037134
v -0.149023 -0.034953 0.056488
v -0.149023 0.016288 0.056488
v -0.149023 -0.034953 -0.037134
v -0.149023 0.016288 -0.037134
v 0.139288 0.016288 0.056488
v 0.139288 0.016288 -0.037134
v -0.149023 0.016288 0.056488
v -0.149023 -0.034953 0.056488
v 0.139288 -0.034953 -0.037134
v 0.139288 -0.034953 0.056488
v -0.149023 -0.034953 -0.037134
vn 0.0000 0.0000 -1.0000
vn 0.0000 0.0000 1.0000
vn 1.0000 0.0000 0.0000
vn -1.0000 0.0000 0.0000
vn 0.0000 1.0000 0.0000
vn 0.0000 -1.0000 0.0000
usemtl 79
s off
f 25//7 26//7 27//7
f 25//7 28//7 26//7
f 29//8 30//8 31//8
f 29//8 32//8 30//8
f 33//9 34//9 35//9
f 33//9 36//9 34//9
f 37//10 38//10 39//10
f 37//10 40//10 38//10
f 41//11 42//11 43//11
f 41//11 44//11 42//11
f 45//12 46//12 47//12
f 45//12 48//12 46//12
