# Blender v3.6.5 OBJ File: ''
# www.blender.org
mtllib Trapezoid Base.mtl
o mesh_id42
v -0.186891 -0.113309 0.040866
v 0.084889 0.068515 0.040866
v -0.096936 0.065977 0.040866
v 0.176736 -0.115201 0.040866
v -0.096936 0.065977 -0.059134
v 0.084889 0.068515 -0.059134
v -0.186891 -0.113309 -0.059134
v 0.176736 -0.115201 -0.059134
v -0.096936 0.065977 0.040866
v 0.084889 0.068515 -0.059134
v -0.096936 0.065977 -0.059134
v 0.084889 0.068515 0.040866
v 0.084889 0.068515 0.040866
v 0.176736 -0.115201 -0.059134
v 0.084889 0.068515 -0.059134
v 0.176736 -0.115201 0.040866
v 0.176736 -0.115201 0.040866
v -0.186891 -0.113309 -0.059134
v 0.176736 -0.115201 -0.059134
v -0.186891 -0.113309 0.040866
v -0.186891 -0.113309 0.040866
v -0.096936 0.065977 -0.059134
v -0.186891 -0.113309 -0.059134
v -0.096936 0.065977 0.040866
vn -0.0000 0.0000 1.0000
vn 0.0000 0.0000 -1.0000
vn -0.0140 0.9999 0.0000
vn 0.8945 0.4472 0.0000
vn -0.0052 -1.0000 0.0000
vn -0.8938 0.4485 0.0000
usemtl 77
s off
f 1//1 2//1 3//1
f 1//1 4//1 2//1
f 5//2 6//2 7//2
f 6//2 8//2 7//2
f 9//3 10//3 11//3
f 9//3 12//3 10//3
f 13//4 14//4 15//4
f 13//4 16//4 14//4
f 17//5 18//5 19//5
f 17//5 20//5 18//5
f 21//6 22//6 23//6
f 21//6 24//6 22//6
