# Blender v3.6.5 OBJ File: ''
# www.blender.org
mtllib Triangle.mtl
o mesh_id26
v 0.130961 -0.008178 0.249991
v -0.091357 0.104900 0.249991
v -0.091357 -0.129988 0.249991
v -0.091357 -0.129988 0.149991
v -0.091357 0.104900 0.149991
v 0.130961 -0.008178 0.149991
v 0.130961 -0.008178 0.249991
v -0.091357 -0.129988 0.149991
v 0.130961 -0.008178 0.149991
v -0.091357 -0.129988 0.249991
v -0.091357 -0.129988 0.249991
v -0.091357 0.104900 0.149991
v -0.091357 -0.129988 0.149991
v -0.091357 0.104900 0.249991
v -0.091357 0.104900 0.249991
v 0.130961 -0.008178 0.149991
v -0.091357 0.104900 0.149991
v 0.130961 -0.008178 0.249991
vn 0.0000 0.0000 1.0000
vn 0.0000 0.0000 -1.0000
vn 0.4805 -0.8770 0.0000
vn -1.0000 0.0000 0.0000
vn 0.4534 0.8913 0.0000
usemtl 79
s off
f 1//1 2//1 3//1
f 4//2 5//2 6//2
f 7//3 8//3 9//3
f 7//3 10//3 8//3
f 11//4 12//4 13//4
f 11//4 14//4 12//4
f 15//5 16//5 17//5
f 15//5 18//5 16//5
